<?xml version="1.0" encoding="UTF-8"?>
<!DOCTYPE svg PUBLIC "-//W3C//DTD SVG 1.1//EN" "http://www.w3.org/Graphics/SVG/1.1/DTD/svg11.dtd">
<svg xmlns="http://www.w3.org/2000/svg" version="1.1" width="600px" height="600px" style="shape-rendering:geometricPrecision; text-rendering:geometricPrecision; image-rendering:optimizeQuality; fill-rule:evenodd; clip-rule:evenodd" xmlns:xlink="http://www.w3.org/1999/xlink">
<g><path style="opacity:0.964" fill="#020100" d="M 327.5,43.5 C 387.48,39.2481 434.98,61.2481 470,109.5C 471.667,110.167 473.333,110.833 475,111.5C 485.444,110.018 494.944,106.185 503.5,100C 516.875,96.9315 525.708,101.765 530,114.5C 532.552,129.121 529.386,142.288 520.5,154C 540.502,161.513 546.002,175.013 537,194.5C 530.775,200.865 523.275,205.031 514.5,207C 507.917,211.543 501.083,215.71 494,219.5C 490.85,235.285 485.516,250.285 478,264.5C 476.087,268.529 476.087,272.529 478,276.5C 513.447,324.735 524.447,378.068 511,436.5C 497.96,478.536 472.126,510.036 433.5,531C 405.503,545.083 375.836,553.083 344.5,555C 304.833,555.667 265.167,555.667 225.5,555C 184.781,552.875 148.114,539.875 115.5,516C 81.2269,484.948 62.3936,446.114 59,399.5C 56.2215,370.629 57.5548,341.962 63,313.5C 72.6863,290.07 90.1863,279.57 115.5,282C 119.276,282.592 122.943,283.592 126.5,285C 140.349,293.761 154.682,301.761 169.5,309C 181.594,314.619 194.261,316.619 207.5,315C 221.961,311.881 228.461,303.047 227,288.5C 215.697,272.561 207.031,255.228 201,236.5C 185.354,173.453 201.52,120.287 249.5,77C 272.555,58.9277 298.555,47.7611 327.5,43.5 Z"/></g>
<g><path style="opacity:1" fill="#fedd75" d="M 193.5,534.5 C 137.342,510.796 105.508,468.463 98,407.5C 94.1817,377.386 94.8483,347.386 100,317.5C 102.792,309.553 107.292,302.887 113.5,297.5C 117.67,298.502 121.67,300.002 125.5,302C 143.224,314.528 162.557,323.861 183.5,330C 199.031,332.942 213.697,330.776 227.5,323.5C 244.078,324.731 256.245,318.064 264,303.5C 266.27,296.016 265.936,288.683 263,281.5C 233.479,241.053 225.812,196.719 240,148.5C 254.933,107.737 282.1,78.4035 321.5,60.5C 371.665,53.3859 413.831,68.3859 448,105.5C 451.333,110.167 454.667,114.833 458,119.5C 459.546,137.828 456.213,155.162 448,171.5C 442.834,176.335 438.834,182.001 436,188.5C 433.782,206.291 441.282,217.791 458.5,223C 464.486,223.909 470.486,224.743 476.5,225.5C 473.143,238.403 468.31,250.737 462,262.5C 459.923,269.721 460.59,276.721 464,283.5C 495.807,325.529 507.14,372.529 498,424.5C 485.061,474.109 454.561,507.942 406.5,526C 384.522,533.997 361.855,538.664 338.5,540C 301.5,540.667 264.5,540.667 227.5,540C 216.051,538.624 204.717,536.791 193.5,534.5 Z"/></g>
<g><path style="opacity:1" fill="#fcb440" d="M 321.5,60.5 C 282.1,78.4035 254.933,107.737 240,148.5C 225.812,196.719 233.479,241.053 263,281.5C 265.936,288.683 266.27,296.016 264,303.5C 256.245,318.064 244.078,324.731 227.5,323.5C 241.313,312.56 245.813,298.56 241,281.5C 233.575,270.322 226.908,258.655 221,246.5C 198.924,185.308 211.757,132.808 259.5,89C 277.748,74.3778 298.415,64.8778 321.5,60.5 Z"/></g>
<g><path style="opacity:1" fill="#fcb440" d="M 508.5,114.5 C 511.368,114.085 513.535,115.085 515,117.5C 516.079,127.7 513.745,137.033 508,145.5C 504.333,149.833 500.667,154.167 497,158.5C 495.622,162.898 496.788,166.398 500.5,169C 505.833,169.333 511.167,169.667 516.5,170C 524.24,171.3 527.073,175.8 525,183.5C 524.535,184.931 523.701,186.097 522.5,187C 516.719,189.057 511.053,191.39 505.5,194C 496.127,201.686 485.461,206.686 473.5,209C 463.965,210.493 456.465,207.326 451,199.5C 450.333,196.833 450.333,194.167 451,191.5C 464.146,176.758 471.479,159.424 473,139.5C 473.499,135.179 473.666,130.846 473.5,126.5C 486.473,126.065 498.14,122.065 508.5,114.5 Z"/></g>
<g><path style="opacity:1" fill="#060502" d="M 421.5,128.5 C 426.421,128.043 429.921,130.043 432,134.5C 432.852,139.907 434.019,145.24 435.5,150.5C 434.871,156.631 431.538,159.131 425.5,158C 423.333,157.167 421.833,155.667 421,153.5C 418.698,146.309 417.698,138.975 418,131.5C 419.145,130.364 420.312,129.364 421.5,128.5 Z"/></g>
<g><path style="opacity:1" fill="#fbb340" d="M 113.5,297.5 C 107.292,302.887 102.792,309.553 100,317.5C 94.8483,347.386 94.1817,377.386 98,407.5C 105.508,468.463 137.342,510.796 193.5,534.5C 131.404,521.53 92.9041,484.196 78,422.5C 71.0622,388.558 70.7289,354.558 77,320.5C 83.1657,303.147 95.3324,295.48 113.5,297.5 Z"/></g>
<g><path style="opacity:1" fill="#050402" d="M 230.5,360.5 C 231.186,364.287 230.186,367.454 227.5,370C 198.464,381.14 168.464,387.14 137.5,388C 130.356,393.123 127.856,399.956 130,408.5C 159.702,456.793 202.869,484.626 259.5,492C 302.378,497.329 340.211,486.162 373,458.5C 402.124,428.663 409.791,393.997 396,354.5C 381.503,320.835 356.336,307.669 320.5,315C 314.264,317.117 308.264,319.784 302.5,323C 286.11,335.056 269.443,346.723 252.5,358C 248.868,358.519 245.868,357.353 243.5,354.5C 243.063,351.193 243.73,348.193 245.5,345.5C 260.5,334.667 275.5,323.833 290.5,313C 324.245,291.297 356.912,292.63 388.5,317C 421.374,355.239 426.54,397.072 404,442.5C 385.174,472.356 358.674,492.189 324.5,502C 241.155,519.217 173.988,494.05 123,426.5C 111.307,410.243 111.807,394.41 124.5,379C 128.387,375.889 132.72,373.556 137.5,372C 166.093,372.011 193.76,367.011 220.5,357C 224.809,355.756 228.142,356.923 230.5,360.5 Z"/></g>
<g><path style="opacity:1" fill="#feb540" d="M 230.5,360.5 C 235.25,359.257 239.584,357.257 243.5,354.5C 245.868,357.353 248.868,358.519 252.5,358C 269.443,346.723 286.11,335.056 302.5,323C 308.264,319.784 314.264,317.117 320.5,315C 356.336,307.669 381.503,320.835 396,354.5C 409.791,393.997 402.124,428.663 373,458.5C 340.211,486.162 302.378,497.329 259.5,492C 202.869,484.626 159.702,456.793 130,408.5C 127.856,399.956 130.356,393.123 137.5,388C 168.464,387.14 198.464,381.14 227.5,370C 230.186,367.454 231.186,364.287 230.5,360.5 Z"/></g>
</svg>
